<svg width="190" height="40" viewBox="0 0 190 40" fill="none" xmlns="http://www.w3.org/2000/svg">
<path d="M17.0425 7.59637C17.0425 7.24214 16.6883 6.88791 16.1766 6.88791H0.826541C0.354232 6.88791 0 7.24214 0 7.59637V11.5716C0 11.8865 0.354232 12.2407 0.826541 12.2407H5.51027V33.7702C5.51027 34.085 5.8645 34.4393 6.33681 34.4393H10.6663C11.178 34.4393 11.5322 34.085 11.5322 33.7702V12.2407H16.1766C16.6883 12.2407 17.0425 11.8865 17.0425 11.5716V7.59637Z" fill="black"/>
<path d="M33.8583 6.80919C24.7664 6.80919 20.2795 13.8151 20.2795 20.7817C20.2795 27.7482 24.7664 34.7935 33.8583 34.7935C42.8322 34.7935 47.3979 27.7482 47.3979 20.7817C47.3979 13.8151 42.8322 6.80919 33.8583 6.80919ZM33.8583 29.2439C28.8597 29.2439 26.3408 25.0718 26.3408 20.8604C26.3408 16.6096 28.8597 12.3588 33.8583 12.3588C38.8176 12.3588 41.3759 16.6096 41.3759 20.8604C41.3759 25.0718 38.8176 29.2439 33.8583 29.2439Z" fill="black"/>
<path d="M118.297 12.7524C118.809 12.7524 119.163 12.3982 119.163 12.0833V7.87189C119.163 7.51766 118.809 7.20278 118.297 7.20278H101.176C100.703 7.20278 100.389 7.51766 100.389 7.87189V33.7702C100.389 34.085 100.703 34.4393 101.176 34.4393H118.297C118.809 34.4393 119.163 34.085 119.163 33.7702V29.5981C119.163 29.2439 118.809 28.929 118.297 28.929H106.292V23.6155H116.172C116.683 23.6155 116.959 23.2613 116.959 22.9464V18.8137C116.959 18.4595 116.683 18.1446 116.172 18.1446H106.292V12.7524H118.297Z" fill="black"/>
<path d="M138.13 34.0063V33.967C138.208 34.2425 138.563 34.4393 138.877 34.4393H143.561C144.152 34.4393 144.466 33.967 144.27 33.4946L133.958 6.84855C133.682 6.25817 132.698 6.25817 132.423 6.84855C129.077 15.4682 125.456 24.875 122.111 33.4946C121.914 33.967 122.189 34.4393 122.858 34.4393H127.503C127.857 34.4393 128.211 34.2425 128.29 33.967V34.0063L129.274 31.2905H137.067L138.13 34.0063ZM132.226 22.4741C132.619 21.2933 132.934 20.1519 133.21 18.6956C133.446 20.0732 133.761 21.1753 134.154 22.4741L135.493 26.5674H130.848L132.226 22.4741Z" fill="black"/>
<path d="M156.246 34.8329C160.773 34.8329 165.063 31.9203 165.063 26.5674C165.063 23.3006 163.41 20.4668 160.379 19.0892C158.411 18.184 156.443 18.184 156.246 18.184C154.711 18.184 153.334 17.0819 153.334 15.3501C153.334 13.3822 154.632 12.4375 156.246 12.4375C157.703 12.4375 159.001 13.2641 159.08 14.8778C159.08 15.232 159.474 15.5469 159.907 15.5469H164.157C164.63 15.5469 164.984 15.232 164.984 14.8778C164.905 10.1154 161.087 6.84855 156.246 6.84855C151.641 6.84855 147.39 10.076 147.39 15.3501C147.39 18.6563 149.083 21.3327 152.035 22.7496C154.042 23.6549 156.01 23.6549 156.246 23.6549C157.545 23.773 159.159 24.875 159.159 26.5674C159.159 28.1812 157.781 29.1651 156.246 29.1651C154.711 29.1651 153.412 28.3386 153.334 26.6462C153.334 26.2526 152.901 26.0164 152.507 26.0164H148.217C147.705 26.0164 147.39 26.2526 147.39 26.6462C147.469 31.8809 151.326 34.7148 156.246 34.8329Z" fill="black"/>
<path d="M188.834 12.7524C189.346 12.7524 189.7 12.3982 189.7 12.0833V7.87189C189.7 7.51766 189.346 7.20278 188.834 7.20278H171.713C171.241 7.20278 170.926 7.51766 170.926 7.87189V33.7702C170.926 34.085 171.241 34.4393 171.713 34.4393H188.834C189.346 34.4393 189.7 34.085 189.7 33.7702V29.5981C189.7 29.2439 189.346 28.929 188.834 28.929H176.83V23.6155H186.709C187.221 23.6155 187.496 23.2613 187.496 22.9464V18.8137C187.496 18.4595 187.221 18.1446 186.709 18.1446H176.83V12.7524H188.834Z" fill="black"/>
<path fill-rule="evenodd" clip-rule="evenodd" d="M63.8224 9.99188L55.0561 18.5527C54.2526 19.3374 54.2526 20.6298 55.0562 21.4145L63.8406 29.9919L72.6931 38.6357C73.4701 39.3944 74.7105 39.3944 75.4875 38.6357L84.3225 30.0094L93.0892 21.4497C93.8928 20.665 93.8929 19.3725 93.0892 18.5878L84.3045 10.0094L75.4515 1.3645C74.6745 0.605721 73.4339 0.60574 72.6569 1.36454L63.8224 9.99188ZM86.3008 27.2458L80.3246 33.0816C79.5479 33.8401 78.3079 33.8404 77.5308 33.0823L76.5238 32.1002C75.2014 30.8102 74.1195 29.6975 74.1195 29.6274C74.1195 29.5572 76.2973 27.3728 78.9588 24.773L82.3331 21.4772C83.1366 20.6924 83.1365 19.4001 82.3329 18.6154L81.3847 17.6896L80.3691 16.6979C79.5919 15.9389 78.351 15.9391 77.574 16.6984L74.0687 20.1237L70.5634 23.5491C69.7865 24.3084 68.5455 24.3086 67.7683 23.5497L66.6736 22.4807L64.181 20.0467L69.0852 15.2565L72.5244 11.8973C73.3278 11.1126 73.3277 9.8203 72.5242 9.03565L71.5542 8.08838L70.5836 7.14067C69.7803 6.35625 69.7799 5.06438 70.5829 4.27951L71.586 3.29887L72.6558 2.25313C73.4327 1.49368 74.6738 1.49335 75.4512 2.25239L83.8634 10.4668L92.2081 18.6155C93.0117 19.4002 93.0117 20.6926 92.2081 21.4774L86.3008 27.2458Z" fill="black"/>
</svg>
