<?xml version="1.0" encoding="utf-8"?>
<!-- Generator: Adobe Illustrator 23.1.1, SVG Export Plug-In . SVG Version: 6.00 Build 0)  -->
<svg version="1.1" id="Ebene_1" xmlns="http://www.w3.org/2000/svg" xmlns:xlink="http://www.w3.org/1999/xlink" x="0px" y="0px"
	 viewBox="0 0 351.4 76.5" style="enable-background:new 0 0 351.4 76.5;" xml:space="preserve">
<style type="text/css">
	.st0{fill:#EFEBE9;}
</style>
<g>
	<path class="st0" d="M31.3,75.5c-6.1,0-10.6-1.3-13.3-3.9c-2.7-2.6-4.1-6.8-4.2-12.8c-0.1-6.7-0.2-13.6-0.2-20.6
		c0-7.1,0.1-14,0.2-20.6c0.1-6,1.5-10.2,4.2-12.8C20.8,2.3,25.2,1,31.3,1c6.1,0,10.4,1.3,13.1,3.8c2.6,2.6,4.1,6.8,4.2,12.8
		c0.2,6.7,0.3,13.6,0.3,20.7c0,7-0.1,13.9-0.3,20.6c-0.2,6-1.6,10.2-4.2,12.8C41.7,74.2,37.4,75.5,31.3,75.5z M31.3,65.9
		c3.6,0,5.4-1.6,5.6-4.9c0.2-4.6,0.3-9.6,0.4-14.9c0.1-5.3,0.1-10.6,0-15.9c-0.1-5.3-0.2-10.2-0.4-14.8c-0.1-3.3-2-4.9-5.6-4.9
		c-3.7,0-5.6,1.6-5.7,4.9c-0.1,4.6-0.2,9.5-0.3,14.8c-0.1,5.3-0.1,10.6,0,15.9c0.1,5.3,0.2,10.3,0.3,14.9
		C25.7,64.3,27.6,65.9,31.3,65.9z"/>
	<path class="st0" d="M71,75.5c-6.2,0-10.6-1.3-13.3-3.9c-2.7-2.6-4-6.8-4.1-12.8c-0.2-19-0.2-38,0-57h11.8
		c-0.1,6.3-0.2,12.8-0.2,19.5c0,6.7,0,13.4,0,20.1c0,6.7,0.1,13.2,0.1,19.5c0,3.3,1.9,4.9,5.6,4.9c3.7,0,5.6-1.6,5.6-4.9
		c0.1-6.3,0.1-12.8,0.1-19.5c0-6.7,0-13.4,0-20.1c0-6.7-0.1-13.2-0.2-19.5h11.8c0.2,19,0.2,38,0,57c-0.1,6-1.4,10.2-4.1,12.8
		C81.6,74.2,77.2,75.5,71,75.5z"/>
	<path class="st0" d="M94.5,74.7V1.8h15.9c6.1,0,10.6,1.3,13.3,3.8c2.7,2.5,4.2,6.7,4.5,12.5c0.1,2.9,0.1,5.4,0.1,7.6
		c0,2.1,0,4.6-0.1,7.4c-0.2,3.7-0.8,6.7-2,9c-1.1,2.3-2.9,4.1-5.2,5.3l8.3,27.3h-12.5l-6.9-25.4h-3.6v25.4H94.5z M106.3,38.9h4.2
		c3.8,0,5.7-1.8,5.9-5.3c0.3-5.3,0.3-10.7,0-16.1c-0.2-3.5-2.2-5.3-5.9-5.3h-4.2V38.9z"/>
	<path class="st0" d="M172.6,75.5c-6.1,0-10.4-1.3-13-3.9c-2.6-2.6-4-6.8-4.2-12.8c-0.1-1.8-0.1-3.7,0-5.6c0-1.9,0.1-3.8,0.3-5.6h11
		c-0.1,2.3-0.2,4.6-0.2,6.9c0,2.3,0.1,4.4,0.2,6.4c0.3,3.3,2.2,5,5.8,5c1.9,0,3.2-0.4,4.1-1.3c0.9-0.8,1.4-2.1,1.5-3.7
		c0.1-1.8,0.2-3.5,0.2-5.1c0-1.6-0.1-3.3-0.2-5.2c-0.1-1.5-0.5-2.9-1.1-4.1s-1.7-2-3.3-2.3l-6.7-1.7c-4.4-1.2-7.5-3.1-9.2-5.7
		c-1.7-2.7-2.6-6.3-2.7-10.8c-0.1-1.5-0.1-2.9,0-4.3c0-1.4,0-2.8,0-4.2c0.2-6,1.7-10.2,4.3-12.8c2.6-2.6,7-3.8,13.2-3.8
		c5.9,0,10.2,1.3,12.8,3.9c2.6,2.6,4.1,6.8,4.3,12.8c0,1.4,0,3.1,0,5.1c0,2-0.1,4-0.1,5.8h-11.3c0.1-2.2,0.1-4.4,0.1-6.6
		c0-2.2,0-4.4,0-6.6c-0.1-3.3-2-4.9-5.7-4.9c-1.9,0-3.3,0.4-4.1,1.3c-0.9,0.9-1.4,2.1-1.6,3.6c-0.3,3.5-0.3,7,0,10.6
		c0.1,1.6,0.5,2.9,1.2,4c0.7,1.1,1.8,1.8,3.4,2.2l6,1.5c4.7,1.2,7.9,3.1,9.7,5.9c1.8,2.8,2.7,6.5,2.8,11c0.1,1.5,0.1,2.8,0,4.1
		c0,1.3,0,2.7,0,4.1c-0.2,6-1.7,10.2-4.3,12.8C183,74.2,178.7,75.5,172.6,75.5z"/>
	<path class="st0" d="M202.7,74.7V12.2h-11.1V1.8h33.9v10.4h-11v62.5H202.7z"/>
	<path class="st0" d="M244.7,75.5c-6.1,0-10.6-1.3-13.3-3.9c-2.7-2.6-4.1-6.8-4.2-12.8c-0.1-6.7-0.2-13.6-0.2-20.6
		c0-7.1,0.1-14,0.2-20.6c0.1-6,1.5-10.2,4.2-12.8c2.7-2.6,7.1-3.8,13.3-3.8c6.1,0,10.4,1.3,13.1,3.8c2.6,2.6,4.1,6.8,4.2,12.8
		c0.2,6.7,0.3,13.6,0.3,20.7c0,7-0.1,13.9-0.3,20.6c-0.2,6-1.6,10.2-4.2,12.8C255.1,74.2,250.7,75.5,244.7,75.5z M244.7,65.9
		c3.6,0,5.4-1.6,5.6-4.9c0.2-4.6,0.3-9.6,0.4-14.9c0.1-5.3,0.1-10.6,0-15.9c-0.1-5.3-0.2-10.2-0.4-14.8c-0.1-3.3-2-4.9-5.6-4.9
		c-3.7,0-5.6,1.6-5.7,4.9c-0.1,4.6-0.2,9.5-0.3,14.8c-0.1,5.3-0.1,10.6,0,15.9c0.1,5.3,0.2,10.3,0.3,14.9
		C239.1,64.3,241,65.9,244.7,65.9z"/>
	<path class="st0" d="M266.8,74.7V1.8h15.9c6.1,0,10.6,1.3,13.3,3.8c2.7,2.5,4.2,6.7,4.5,12.5c0.1,2.9,0.1,5.4,0.1,7.6
		c0,2.1,0,4.6-0.1,7.4c-0.2,3.7-0.8,6.7-2,9c-1.1,2.3-2.9,4.1-5.2,5.3l8.3,27.3h-12.5l-6.9-25.4h-3.6v25.4H266.8z M278.6,38.9h4.2
		c3.8,0,5.7-1.8,5.9-5.3c0.3-5.3,0.3-10.7,0-16.1c-0.2-3.5-2.2-5.3-5.9-5.3h-4.2V38.9z"/>
	<path class="st0" d="M313.3,74.7V56.8l-0.9-3.8L300.6,1.8h12l3.7,18.4l1.6,21.2h2.4l1.6-21.2l3.8-18.4h11.9L326,52.9l-0.9,3.9v17.9
		H313.3z"/>
</g>
</svg>
